<svg xmlns="http://www.w3.org/2000/svg" width="1000" height="600" viewBox="0 0 1000 600"><rect width="1000" height="600" fill="#f4f8f8"/><g font-family="sans-serif" fill="#163b45"><text x="35" y="45" font-size="26">希慎廣場 · 接駁到目的建築</text><line x1="249.04655565902368" y1="124.01565892024342" x2="268.3450277318577" y2="143.31487597768978" stroke="#157b79" stroke-width="5"/><line x1="268.3450277318577" y1="143.31487597768978" x2="287.64474231551054" y2="162.61409303036575" stroke="#157b79" stroke-width="5"/><line x1="287.64474231551054" y1="162.61409303036575" x2="306.9432143883446" y2="162.61409303036575" stroke="#157b79" stroke-width="5"/><line x1="306.9432143883446" y1="162.61409303036575" x2="326.2429289529159" y2="181.91331008304172" stroke="#157b79" stroke-width="5"/><line x1="326.2429289529159" y1="181.91331008304172" x2="345.54140104483145" y2="201.21252713571772" stroke="#157b79" stroke-width="5"/><line x1="345.54140104483145" y1="471.40156589226285" x2="345.54140104483145" y2="452.10234883958685" stroke="#157b79" stroke-width="5"/><line x1="345.54140104483145" y1="471.40156589226285" x2="364.8411156094028" y2="490.70078294493885" stroke="#157b79" stroke-width="5"/><line x1="345.54140104483145" y1="452.10234883958685" x2="345.54140104483145" y2="432.8031317869109" stroke="#157b79" stroke-width="5"/><line x1="345.54140104483145" y1="432.8031317869109" x2="345.54140104483145" y2="413.50391472946455" stroke="#157b79" stroke-width="5"/><line x1="345.54140104483145" y1="413.50391472946455" x2="345.54140104483145" y2="394.20469767678856" stroke="#157b79" stroke-width="5"/><line x1="345.54140104483145" y1="394.20469767678856" x2="345.54140104483145" y2="374.9054806241126" stroke="#157b79" stroke-width="5"/><line x1="345.54140104483145" y1="374.9054806241126" x2="345.54140104483145" y2="355.6062635714366" stroke="#157b79" stroke-width="5"/><line x1="345.54140104483145" y1="355.6062635714366" x2="345.54140104483145" y2="336.30704651399026" stroke="#157b79" stroke-width="5"/><line x1="345.54140104483145" y1="336.30704651399026" x2="345.54140104483145" y2="317.0078294613143" stroke="#157b79" stroke-width="5"/><line x1="345.54140104483145" y1="317.0078294613143" x2="345.54140104483145" y2="297.7086124086383" stroke="#157b79" stroke-width="5"/><line x1="345.54140104483145" y1="297.7086124086383" x2="345.54140104483145" y2="278.4093953559624" stroke="#157b79" stroke-width="5"/><line x1="345.54140104483145" y1="278.4093953559624" x2="345.54140104483145" y2="259.110178298516" stroke="#157b79" stroke-width="5"/><line x1="345.54140104483145" y1="259.110178298516" x2="345.54140104483145" y2="239.81096124584002" stroke="#157b79" stroke-width="5"/><line x1="345.54140104483145" y1="239.81096124584002" x2="345.54140104483145" y2="220.51174419316405" stroke="#157b79" stroke-width="5"/><line x1="345.54140104483145" y1="220.51174419316405" x2="345.54140104483145" y2="201.21252713571772" stroke="#157b79" stroke-width="5"/><line x1="364.8411156094028" y1="510.00000000238515" x2="364.8411156094028" y2="490.70078294493885" stroke="#157b79" stroke-width="5"/><line x1="249.04655565902368" y1="124.01565892024342" x2="268.3450277318577" y2="124.01565892024342" stroke="#157b79" stroke-width="5"/><line x1="268.3450277318577" y1="124.01565892024342" x2="287.64474231551054" y2="104.71644186756745" stroke="#157b79" stroke-width="5"/><line x1="287.64474231551054" y1="104.71644186756745" x2="306.9432143883446" y2="104.71644186756745" stroke="#157b79" stroke-width="5"/><line x1="306.9432143883446" y1="104.71644186756745" x2="326.2429289529159" y2="124.01565892024342" stroke="#157b79" stroke-width="5"/><line x1="326.2429289529159" y1="336.30704651399026" x2="326.2429289529159" y2="317.0078294613143" stroke="#157b79" stroke-width="5"/><line x1="326.2429289529159" y1="336.30704651399026" x2="345.54140104483145" y2="355.6062635714366" stroke="#157b79" stroke-width="5"/><line x1="326.2429289529159" y1="317.0078294613143" x2="326.2429289529159" y2="297.7086124086383" stroke="#157b79" stroke-width="5"/><line x1="326.2429289529159" y1="297.7086124086383" x2="326.2429289529159" y2="278.4093953559624" stroke="#157b79" stroke-width="5"/><line x1="326.2429289529159" y1="278.4093953559624" x2="345.54140104483145" y2="259.110178298516" stroke="#157b79" stroke-width="5"/><line x1="326.2429289529159" y1="124.01565892024342" x2="345.54140104483145" y2="143.31487597768978" stroke="#157b79" stroke-width="5"/><line x1="345.54140104483145" y1="355.6062635714366" x2="364.8411156094028" y2="374.9054806241126" stroke="#157b79" stroke-width="5"/><line x1="345.54140104483145" y1="259.110178298516" x2="345.54140104483145" y2="239.81096124584002" stroke="#157b79" stroke-width="5"/><line x1="345.54140104483145" y1="239.81096124584002" x2="345.54140104483145" y2="220.51174419316405" stroke="#157b79" stroke-width="5"/><line x1="345.54140104483145" y1="220.51174419316405" x2="345.54140104483145" y2="201.21252713571772" stroke="#157b79" stroke-width="5"/><line x1="345.54140104483145" y1="201.21252713571772" x2="345.54140104483145" y2="181.91331008304172" stroke="#157b79" stroke-width="5"/><line x1="345.54140104483145" y1="181.91331008304172" x2="345.54140104483145" y2="162.61409303036575" stroke="#157b79" stroke-width="5"/><line x1="345.54140104483145" y1="162.61409303036575" x2="345.54140104483145" y2="143.31487597768978" stroke="#157b79" stroke-width="5"/><line x1="364.8411156094028" y1="374.9054806241126" x2="384.14083019305565" y2="394.20469767678856" stroke="#157b79" stroke-width="5"/><line x1="384.14083019305565" y1="394.20469767678856" x2="403.43930226588964" y2="413.50391472946455" stroke="#157b79" stroke-width="5"/><line x1="403.43930226588964" y1="413.50391472946455" x2="422.739016830461" y2="432.8031317869109" stroke="#157b79" stroke-width="5"/><line x1="422.739016830461" y1="432.8031317869109" x2="442.037488903295" y2="432.8031317869109" stroke="#157b79" stroke-width="5"/><line x1="442.037488903295" y1="432.8031317869109" x2="461.3372034869479" y2="432.8031317869109" stroke="#157b79" stroke-width="5"/><line x1="461.3372034869479" y1="432.8031317869109" x2="480.6356755597819" y2="452.10234883958685" stroke="#157b79" stroke-width="5"/><line x1="480.6356755597819" y1="452.10234883958685" x2="499.93539012435326" y2="471.40156589226285" stroke="#157b79" stroke-width="5"/><line x1="499.93539012435326" y1="471.40156589226285" x2="519.2351047270876" y2="490.70078294493885" stroke="#157b79" stroke-width="5"/><line x1="519.2351047270876" y1="490.70078294493885" x2="538.5335767808401" y2="510.00000000238515" stroke="#157b79" stroke-width="5"/><line x1="232.5399755908668" y1="121.80953538520095" x2="249.04655565902368" y2="124.01565892024342" stroke="#157b79" stroke-width="5"/><line x1="232.5399755908668" y1="121.80953538520095" x2="249.04655565902368" y2="124.01565892024342" stroke="#157b79" stroke-width="5"/><line x1="232.5399755908668" y1="121.80953538520095" x2="232.5399755908668" y2="121.80953538520095" stroke="#157b79" stroke-width="5"/><line x1="364.8411156094028" y1="510.00000000238515" x2="364.8411156094028" y2="510.00000000238515" stroke="#157b79" stroke-width="5"/><polyline points="364.8411156094028,510.00000000238515 566.1505700188087,138.87107448325781 767.4600244282148,90.0000000023852" fill="none" stroke="#157b79" stroke-width="5"/><circle cx="767.4600244282148" cy="90.0000000023852" r="8" fill="#df913a"/><text x="779.4600244282148" y="78.0000000023852" font-size="18">目前位置</text><circle cx="538.5335767808401" cy="510.00000000238515" r="8" fill="#157b79"/><text x="550.5335767808401" y="498.00000000238515" font-size="18">目標</text><text x="35" y="555" font-size="16">現有地圖節點與路線投影 · 跨樓層請參照頁面樓層圖 · 非現場視角照片</text></g></svg>