<svg xmlns="http://www.w3.org/2000/svg" width="1000" height="600" viewBox="0 0 1000 600"><rect width="1000" height="600" fill="#f4f8f8"/><g font-family="sans-serif" fill="#163b45"><text x="35" y="45" font-size="26">沙田政府合署 · 報告設施故障與改道</text><line x1="438.11475942449755" y1="112.86911627981146" x2="440.40161115993493" y2="112.86911627981146" stroke="#157b79" stroke-width="5"/><line x1="440.40161115993493" y1="112.86911627981146" x2="442.6886100191745" y2="115.15602790759476" stroke="#157b79" stroke-width="5"/><line x1="442.6886100191745" y1="115.15602790759476" x2="444.975461756873" y2="117.44293953594337" stroke="#157b79" stroke-width="5"/><line x1="444.975461756873" y1="117.44293953594337" x2="447.26231349457146" y2="119.72985116372666" stroke="#157b79" stroke-width="5"/><line x1="447.26231349457146" y1="119.72985116372666" x2="449.54931235381105" y2="122.01676279150996" stroke="#157b79" stroke-width="5"/><line x1="449.54931235381105" y1="122.01676279150996" x2="451.83616409150954" y2="124.30367441929326" stroke="#157b79" stroke-width="5"/><line x1="451.83616409150954" y1="124.30367441929326" x2="454.123162948488" y2="126.59042693598684" stroke="#157b79" stroke-width="5"/><line x1="438.11475942449755" y1="110.58220465202817" x2="440.40161115993493" y2="108.29529302367959" stroke="#157b79" stroke-width="5"/><line x1="440.40161115993493" y1="108.29529302367959" x2="440.40161115993493" y2="106.0083813958963" stroke="#157b79" stroke-width="5"/><line x1="440.40161115993493" y1="106.0083813958963" x2="440.40161115993493" y2="103.721469768113" stroke="#157b79" stroke-width="5"/><line x1="440.40161115993493" y1="103.721469768113" x2="440.40161115993493" y2="101.4345581403297" stroke="#157b79" stroke-width="5"/><line x1="440.40161115993493" y1="101.4345581403297" x2="440.40161115993493" y2="99.1476465119811" stroke="#157b79" stroke-width="5"/><line x1="440.40161115993493" y1="99.1476465119811" x2="440.40161115993493" y2="96.8607348841978" stroke="#157b79" stroke-width="5"/><line x1="440.40161115993493" y1="96.8607348841978" x2="442.6886100191745" y2="94.5738232564145" stroke="#157b79" stroke-width="5"/><line x1="442.6886100191745" y1="94.5738232564145" x2="444.975461756873" y2="92.2869116286312" stroke="#157b79" stroke-width="5"/><line x1="444.975461756873" y1="92.2869116286312" x2="447.26231349457146" y2="90.00000000028263" stroke="#157b79" stroke-width="5"/><line x1="436.917634320909" y1="111.52239534334757" x2="438.11475942449755" y2="112.86911627981146" stroke="#157b79" stroke-width="5"/><line x1="436.93528886513786" y1="111.49057301517624" x2="438.11475942449755" y2="110.58220465202817" stroke="#157b79" stroke-width="5"/><line x1="436.917634320909" y1="111.52239534334757" x2="436.93528886513786" y2="111.49057301517624" stroke="#157b79" stroke-width="5"/><line x1="454.123162948488" y1="126.59042693598684" x2="454.123162948488" y2="126.59042693598684" stroke="#157b79" stroke-width="5"/><polyline points="537.8528972149795,414.4143565016872 538.024711853841,409.0346162046561" fill="none" stroke="#157b79" stroke-width="5"/><polyline points="541.3050455886098,266.89291866913123 541.2738232754498,263.9785308484925" fill="none" stroke="#157b79" stroke-width="5"/><polyline points="535.4729820015739,422.45816681219503 529.1537420097459,431.74644889732707 519.9867328150909,442.9609306592354 511.4815119812377,451.41913179530275 508.5645762786332,453.6190483028174" fill="none" stroke="#157b79" stroke-width="5"/><polyline points="541.2738232754498,263.9785308484925 541.2299692079804,259.8976982114685 542.3645443739376,250.31750787961815 544.201908439763,242.03298603647258" fill="none" stroke="#157b79" stroke-width="5"/><polyline points="563.082365679091,194.73805856101507 556.279042522708,187.97066602767333 550.9973573535244,184.96393860781626" fill="none" stroke="#157b79" stroke-width="5"/><polyline points="535.4729820015739,422.45816681219503 537.8169593541173,415.5392726854591 537.8528972149795,414.4143565016872" fill="none" stroke="#157b79" stroke-width="5"/><polyline points="555.0463416211453,352.48141389137174 556.8424207587502,344.11786207803897 557.0317878684425,339.08052754253356 555.7093231641908,331.096942876663 555.0178023530337,328.1220151144988" fill="none" stroke="#157b79" stroke-width="5"/><polyline points="555.0178023530337,328.1220151144988 544.7510816213814,283.95503160414955 542.4839457846213,272.8348556466011 541.3050455886098,266.89291866913123" fill="none" stroke="#157b79" stroke-width="5"/><polyline points="555.0463416211453,352.48141389137174 554.925859532128,359.1562006332085 556.7397474851405,365.3911609018129 559.007152468896,372.5385612662475 558.5532299438171,377.25258287637405 545.5490119366646,397.476757534566 538.024711853841,409.0346162046561" fill="none" stroke="#157b79" stroke-width="5"/><polyline points="461.5140866163045,135.77920530990008 466.0470537613611,136.66907611544724" fill="none" stroke="#157b79" stroke-width="5"/><polyline points="480.859696408117,139.5770096579356 484.76036117921143,140.3428394739523" fill="none" stroke="#157b79" stroke-width="5"/><polyline points="557.821339369344,172.66691413566565 559.6212087441354,169.42347480671654" fill="none" stroke="#157b79" stroke-width="5"/><polyline points="550.9973573535244,184.96393860781626 552.2711381750272,182.66864521716082" fill="none" stroke="#157b79" stroke-width="5"/><polyline points="552.2711381750272,182.66864521716082 554.4787874247478,178.69042421525663" fill="none" stroke="#157b79" stroke-width="5"/><polyline points="561.840729605129,197.01682978667623 563.082365679091,194.73805856101507" fill="none" stroke="#157b79" stroke-width="5"/><polyline points="544.201908439763,242.03298603647258 544.860141587926,239.06462198747374 553.3289161859659,214.2020761255697 560.0581464212635,200.28843274004214 561.840729605129,197.01682978667623" fill="none" stroke="#157b79" stroke-width="5"/><polyline points="484.76036117921143,140.3428394739523 484.3935991566862,142.92298544679971" fill="none" stroke="#157b79" stroke-width="5"/><polyline points="472.6242127267292,137.9602600488688 474.6572617126524,138.3594163705645" fill="none" stroke="#157b79" stroke-width="5"/><polyline points="474.6572617126524,138.3594163705645 480.859696408117,139.5770096579356" fill="none" stroke="#157b79" stroke-width="5"/><polyline points="466.0470537613611,136.66907611544724 472.6242127267292,137.9602600488688" fill="none" stroke="#157b79" stroke-width="5"/><polyline points="555.530675212946,176.7948496884572 557.821339369344,172.66691413566565" fill="none" stroke="#157b79" stroke-width="5"/><polyline points="554.4787874247478,178.69042421525663 555.530675212946,176.7948496884572" fill="none" stroke="#157b79" stroke-width="5"/><polyline points="505.2972307195865,475.99836608418275 535.3922250395036,495.62644908675554" fill="none" stroke="#157b79" stroke-width="5"/><polyline points="535.3922250395036,495.62644908675554 556.4876887361623,509.3849137255876" fill="none" stroke="#157b79" stroke-width="5"/><polyline points="508.5645762786332,453.6190483028174 512.2749384952139,455.8073625591643 510.3630106565127,458.2345176145226" fill="none" stroke="#157b79" stroke-width="5"/><polyline points="513.7328654115461,463.4709659238885 505.2972307195865,475.99836608418275" fill="none" stroke="#157b79" stroke-width="5"/><polyline points="510.6727757576678,461.7055655890666 513.7328654115461,463.4709659238885" fill="none" stroke="#157b79" stroke-width="5"/><polyline points="510.3630106565127,458.2345176145226 509.51876460518497,459.4358179192979" fill="none" stroke="#157b79" stroke-width="5"/><polyline points="509.51876460518497,459.4358179192979 508.7722448639526,460.4980369523223" fill="none" stroke="#157b79" stroke-width="5"/><polyline points="508.7722448639526,460.4980369523223 510.6727757576678,461.7055655890666" fill="none" stroke="#157b79" stroke-width="5"/><line x1="509.51876460518497" y1="459.4358179192979" x2="509.51876460518497" y2="459.4358179192979" stroke="#157b79" stroke-width="5"/><line x1="508.7722448639526" y1="460.4980369523223" x2="508.7722448639526" y2="460.4980369523223" stroke="#157b79" stroke-width="5"/><line x1="454.123162948488" y1="126.59042693598684" x2="461.5140866163045" y2="135.77920530990008" stroke="#157b79" stroke-width="5"/><line x1="556.4876887361623" y1="509.3849137255876" x2="554.608699433391" y2="510.0000000002826" stroke="#157b79" stroke-width="5"/><polyline points="484.3935991566862,142.92298544679971 522.0074039492803,137.07983310779312 559.6212087441354,169.42347480671654" fill="none" stroke="#157b79" stroke-width="5"/><circle cx="447.26231349457146" cy="90.00000000028263" r="8" fill="#df913a"/><text x="459.26231349457146" y="78.00000000028263" font-size="18">目前位置</text><circle cx="554.608699433391" cy="510.0000000002826" r="8" fill="#157b79"/><text x="566.608699433391" y="498.0000000002826" font-size="18">目標</text><text x="35" y="555" font-size="16">現有地圖節點與路線投影 · 跨樓層請參照頁面樓層圖 · 非現場視角照片</text></g></svg>